<?xml version="1.0" encoding="utf-8"?>
<!-- Generator: Adobe Illustrator 17.1.0, SVG Export Plug-In . SVG Version: 6.00 Build 0)  -->
<!DOCTYPE svg PUBLIC "-//W3C//DTD SVG 1.1//EN" "http://www.w3.org/Graphics/SVG/1.1/DTD/svg11.dtd">
<svg version="1.1" id="Layer_1" xmlns="http://www.w3.org/2000/svg" xmlns:xlink="http://www.w3.org/1999/xlink" x="0px" y="0px"
	 viewBox="0 0 2130 1070" enable-background="new 0 0 2130 1070" xml:space="preserve">
<g>
	<path d="M306.8,930c-5.4-5.4-13.5-8.2-24-8.2h-32.5v59.8h32.6c9.8,0,17.7-2.7,23.3-7.9c5.8-5.3,8.7-12.6,8.7-21.7
		C314.9,942.8,312.2,935.4,306.8,930z M299.4,966.4c-3.7,3.5-9.3,5.2-16.5,5.2h-22.6v-39.8h22.5c7.8,0,13.5,1.8,16.9,5.2
		c3.5,3.5,5.2,8.4,5.2,14.9C304.9,958.2,303.1,963,299.4,966.4z"/>
	<path d="M759.3,930c-5.4-5.4-13.5-8.2-24-8.2h-32.5v59.8h32.6c9.8,0,17.7-2.7,23.3-7.9c5.8-5.3,8.7-12.6,8.7-21.7
		C767.4,942.8,764.6,935.4,759.3,930z M751.9,966.4c-3.7,3.5-9.3,5.2-16.5,5.2h-22.6v-39.8h22.5c7.8,0,13.5,1.8,16.9,5.2
		c3.5,3.5,5.2,8.4,5.2,14.9C757.4,958.2,755.6,963,751.9,966.4z"/>
	<path d="M0,0v894.1V1070h44.2h52.7h52.7h0.8h44.2h21.7h44.2h50.3h44.7h43.9h44.2h60.3h44.2h56.7h44.2h19.9h44.2h50.3h44.7h9.7
		h121.2h10.1H1070h1060V0H0z M44.2,1060v-40.4l12-13l34.2,53.4H44.2z M102.3,1060l-44.6-69.7l-23.5,25.3v44.4H10V904.1h24.2v85.5
		l24-33l40.7-52.6h29.2l-54.7,68.4L131,1060H102.3z M160.3,1060V904.1h24.2V1060H160.3z M260.3,1060v-50.7h19.2l26,50.7H260.3z
		 M316.7,1060l-31.1-60.7h-35.3v60.7h-24.2V904.1h56.6c18.3,0,32.5,4,42.2,12c9.5,7.8,14.1,18.7,14.1,33.2c0,10.3-2.2,18.9-6.5,25.6
		c-4.3,6.7-11.1,12.2-20.1,16.2l-4.9,2.2l35.3,66.8H316.7z M409.3,1060V921.8h-50.1v-17.7h125.1v17.7h-50.8V1060H409.3z M547.9,1060
		v-61.1h56.7v61.1H547.9z M614.6,1060v-71.1h-76.7v71.1h-24.2V904.1h24.2v67.2h76.7v-67.2h24.2V1060H614.6z M712.8,1060v-50.7H732
		l26,50.7H712.8z M769.2,1060l-31.1-60.7h-35.3v60.7h-24.2V904.1h56.6c18.3,0,32.5,4,42.2,12c9.5,7.8,14.1,18.7,14.1,33.2
		c0,10.3-2.2,18.9-6.5,25.6c-4.3,6.7-11.1,12.2-20.1,16.2l-4.9,2.2l35.3,66.8H769.2z M827.5,1060V904.1h101v17.7h-76.8v49.5h65.6
		v16.8h-65.6v54.4h77v17.5H827.5z M958.8,1060V904.1h101v17.7H983v49.5h65.6v16.8H983v54.4h77v17.5H958.8z M2120,1060H1070v-27.5
		h-77v-34.4h65.6v-36.8H993v-29.5h76.8v-37.7h-121V1060h-10.1v-27.5h-77v-34.4h65.6v-36.8h-65.6v-29.5h76.8v-37.7h-121V1060h-10.9
		l-32.9-62.2c8.5-4.6,15.1-10.5,19.6-17.5c5.4-8.3,8.2-18.8,8.2-31c0-17.4-6-31.2-17.8-40.9c-11.5-9.4-27.8-14.2-48.5-14.2h-66.6
		V1060h-19.9V894.1h-44.2v67.2h-56.7v-67.2h-44.2V1060h-60.3V931.8h50.8v-37.7H349.1v37.7h50.1V1060h-45l-32.9-62.2
		c8.5-4.6,15.1-10.5,19.6-17.5c5.4-8.3,8.2-18.8,8.2-31c0-17.4-6-31.2-17.8-40.9c-11.5-9.4-27.8-14.2-48.5-14.2h-66.6V1060h-21.7
		V894.1h-44.2V1060h-7.3l-57.1-86.9l63.1-79H94l-43.8,56.5l-6.1,8.3v-64.9H10V10h2110V1060z"/>
	<path d="M1424.8,309c46,2.6,53.8,40.8,56.4,53.1c2.6,12.3,1.4,62.2-3.5,74.5c-4.9,12.3-43.2,70-43.8,75.8c-0.6,5.8-4.4,32.3,2.9,33
		c-6.7,22.6-0.6,37.9,7.8,38.2c-0.2,5.1,0.3,10,1.6,14.3c8.4,27.2,31.2,95.3,31.5,111.5c0.3,16.2,0.3,71.3-4.3,82.9
		c-4.5,11.7-24,55.7-14.9,69.3c9.1,13.6,37.6,20.7,55.1,12.3c17.5-8.4,73.9-18.1,82.9-18.8c9.1-0.6,31.8-31.8,28.5-55.1
		c-3.2-23.3-25.9-86.2-32.4-89.4c-6.5-3.2-24,9.1-27.2,14.9c-3.2,5.8,3.2,34.3,4.5,46s-3.2,39.5-22,40.8s-29.2,5.8-30.5-18.8
		c-1.3-24.6,20.1-105.6,20.7-119.2c0.6-13.6-8.4-75.2,5.2-90.1c12.9-14.1,44.3-22.4,58.1-26c-16,26.4-19.5,62.9-17.9,77.2
		c2.6,23.3,49.9,152.9,57,172.4c7.1,19.4,36.3,75.2,87.5,53.8c51.2-21.4,70.6-73.9,78.4-92c7.8-18.1,23.3-68.7,20.7-136.1
		c-2.6-67.4-1.9-98.2-3.2-98.7s-14.3-6.9-14.3-12.1s7.8-32.4-9.1-45.4c-6.2-4.8-25.9-9.4-48.7-13.8c29-15.4,51.4-42.4,57.7-65.3
		c9.7-35,16.2-92-9.7-119.9c-25.9-27.9-62.9-57.7-90.7-57.7c-27.9,0-70,7.8-82.9,18.1c-13,10.4-39.5,52.5-37.6,70
		s10.5,90.1,6.2,98.5c-4.3,8.4-5.6,15.6-10.8,13.6c-5.2-1.9-7.8-10.4-3.9-31.8s7.8-45.4,3.9-60.3c-3.9-14.9-38.9-39.5-42.1-41.5
		c-2.7-1.6-6.8,25.8-12.6,39.4c-6.3-3.6-13.8-5.5-15.3-7c-2.6-2.6-5.8-14.9-10.4-16.2c-4.5-1.3-49.9-13.6-56.4-16.2
		c-6.5-2.6-10.4-18.1-8.4-24c1.9-5.8,62.9-29.2,83.6-23.3c0,0-14.3,40.8,16.8,35c31.1-5.8,46-23.3,48.6-29.8
		c2.6-6.5,14.9-48.6-14.3-52.5c-29.2-3.9-73.2,9.1-86.8,13s-19.4,0.6-22,1.3s-31.1,10.4-35,11.7c-3.9,1.3-30.5,8.3-38.9,15.2
		c-8.4,6.9-30.5,25.5-28.5,41.8C1364.6,292.2,1378.8,306.4,1424.8,309z M1658.7,268.2c13.6-7.8,56.4-7.8,78.4,11.7
		s43.4,45.4,36.3,71.9c-7.1,26.6-30.5,90.1-59.6,81.6s-34.3-31.1-33.7-46c0.6-14.9,9.7-46.7,24-48s20.7,6.5,20.7,13
		s-13,29.2-13.6,34.3c-0.6,5.2,8.4,23.3,23.3,13.6c14.9-9.7,24-35,22-47.3s-17.5-60.9-35-62.9c-17.5-1.9-46-8.4-63.5,13.6
		c-3.6,4.5-6.5,10-8.8,16.2c-0.1-4.5-0.2-7.5-0.3-8.4C1648.4,305.1,1645.1,276,1658.7,268.2z M1640,640.8
		c3.9-30.5,22-45.4,38.9-41.5c16.8,3.9,29.8,31.8,31.8,46c1.1,8.4-0.2,20.3-1.5,28.5c1.1-10.2,0.4-25.7-12.1-32.4
		c-19.4-10.4-22,0.6-22.7,6.5c-0.6,5.8,6.5,78.4,24.6,77.8c18.1-0.6,42.8-3.2,42.1-29.8c-0.6-26.6-13-94.6-14.9-102.4
		c-1.6-6.6-14.8-48.7-53.2-61.3c12.4-4.6,22.9-8.4,27.9-9.7c15.6-4.2,44.7,4.3,54.4,60.6c9.7,56.4,19.4,143.2-4.5,181.4
		c-24,38.2-63.5,63.5-79.7,22C1654.9,745.1,1636.1,671.2,1640,640.8z M1540.2,539.1c-9.3,3.5-27.8,5-47.8-4.3
		c15.4-11.2,40.4-20.9,60.8-20.9C1578.4,513.8,1550.5,535.2,1540.2,539.1z M1538.4,355c5.3,8.2,9.9,19.3,8.3,35c0,0-3.2,9.7-8.4,7.8
		C1534.5,396.4,1537.1,372.8,1538.4,355z M1509.1,478.1c31.8-14.3,71.3-13.6,71.3-13.6s-16.2,25.9-38.9,27.9
		c-13.4,1.1-33.8-3.6-53.5,0.1C1494.8,486.5,1502,481.3,1509.1,478.1z"/>
</g>
</svg>
